<?xml version="1.0" encoding="utf-8"?>
<!-- Generator: Adobe Illustrator 28.1.0, SVG Export Plug-In . SVG Version: 6.00 Build 0)  -->
<svg version="1.1" id="Camada_1" xmlns="http://www.w3.org/2000/svg" xmlns:xlink="http://www.w3.org/1999/xlink" x="0px" y="0px"
	 viewBox="0 0 121.6 41" style="enable-background:new 0 0 121.6 41;" xml:space="preserve">
<style type="text/css">
	.st0{enable-background:new    ;}
	.st1{fill:#FFFFFF;}
	.st2{font-family:'MyriadPro-Bold';}
	.st3{font-size:17.292px;}
	.st4{fill:#4CB9E7;}
	.st5{font-size:12.6954px;}
	.st6{fill:none;stroke:#FFFFFF;stroke-width:0.25;stroke-miterlimit:10;}
</style>
<g class="st0">
	<path class="st1" d="M44.8,23.5c-0.4,0.5-0.9,0.9-1.5,1.2c-0.6,0.3-1.3,0.4-1.9,0.4c-0.6,0-1.2-0.1-1.8-0.3c-0.6-0.2-1-0.5-1.4-0.9
		s-0.7-0.8-1-1.4s-0.4-1.1-0.4-1.8c0-0.6,0.1-1.2,0.4-1.8s0.6-1,1-1.4s0.9-0.7,1.4-0.9c0.6-0.2,1.1-0.3,1.8-0.3
		c0.6,0,1.1,0.1,1.6,0.3c0.5,0.2,0.9,0.5,1.2,0.9s0.6,0.8,0.8,1.4c0.2,0.5,0.3,1.1,0.3,1.8v0.8h-5.8c0.1,0.5,0.3,0.9,0.7,1.2
		c0.3,0.3,0.8,0.4,1.2,0.4s0.8-0.1,1.1-0.3c0.3-0.2,0.5-0.4,0.7-0.7L44.8,23.5z M42.7,19.9c0-0.4-0.1-0.8-0.4-1.1
		c-0.3-0.3-0.7-0.5-1.1-0.5c-0.3,0-0.5,0-0.7,0.1s-0.4,0.2-0.5,0.3c-0.2,0.1-0.3,0.3-0.4,0.5c-0.1,0.2-0.1,0.4-0.1,0.6h3.2V19.9z"/>
	<path class="st1" d="M48.9,20.5l-2.7-3.8h3l1.4,2.2l1.4-2.2h2.8l-2.7,3.8l3.1,4.4h-3l-1.8-2.7l-1.9,2.7h-2.9L48.9,20.5z"/>
	<path class="st1" d="M63.8,23.5c-0.4,0.5-0.9,0.9-1.5,1.2c-0.6,0.3-1.3,0.4-1.9,0.4c-0.6,0-1.2-0.1-1.8-0.3c-0.6-0.2-1-0.5-1.4-0.9
		s-0.7-0.8-1-1.4s-0.4-1.1-0.4-1.8c0-0.6,0.1-1.2,0.4-1.8s0.6-1,1-1.4s0.9-0.7,1.4-0.9c0.6-0.2,1.1-0.3,1.8-0.3
		c0.6,0,1.1,0.1,1.6,0.3c0.5,0.2,0.9,0.5,1.2,0.9s0.6,0.8,0.8,1.4c0.2,0.5,0.3,1.1,0.3,1.8v0.8h-5.8c0.1,0.5,0.3,0.9,0.7,1.2
		c0.3,0.3,0.8,0.4,1.2,0.4s0.8-0.1,1.1-0.3c0.3-0.2,0.5-0.4,0.7-0.7L63.8,23.5z M61.7,19.9c0-0.4-0.1-0.8-0.4-1.1
		c-0.3-0.3-0.7-0.5-1.1-0.5c-0.3,0-0.5,0-0.7,0.1s-0.4,0.2-0.5,0.3c-0.2,0.1-0.3,0.3-0.4,0.5c-0.1,0.2-0.1,0.4-0.1,0.6h3.2V19.9z"/>
	<path class="st1" d="M65.7,16.7h2.5V18l0,0c0.3-0.5,0.6-0.9,1-1.1c0.4-0.3,0.8-0.4,1.4-0.4c0.1,0,0.3,0,0.4,0s0.3,0,0.4,0.1v2.3
		c-0.2-0.1-0.4-0.1-0.5-0.1c-0.2,0-0.4,0-0.5,0c-0.5,0-0.9,0.1-1.1,0.2c-0.3,0.1-0.5,0.3-0.6,0.6s-0.2,0.5-0.3,0.9s-0.1,0.7-0.1,1.1
		V25h-2.5v-8.3H65.7z"/>
	<path class="st1" d="M77.8,19.3c-0.1-0.2-0.3-0.3-0.5-0.4s-0.5-0.2-0.7-0.2c-0.6,0-1.1,0.2-1.5,0.6s-0.5,0.9-0.5,1.5
		s0.2,1.1,0.5,1.5c0.4,0.4,0.8,0.6,1.5,0.6c0.3,0,0.5-0.1,0.7-0.2s0.4-0.3,0.5-0.4l1.7,1.7c-0.4,0.4-0.9,0.7-1.4,0.8s-1,0.2-1.5,0.2
		c-0.6,0-1.2-0.1-1.8-0.3c-0.6-0.2-1-0.5-1.4-0.9s-0.7-0.8-1-1.4s-0.4-1-0.4-1.6s0.1-1.2,0.4-1.8s0.6-1,1-1.4s0.9-0.7,1.4-0.9
		c0.6-0.2,1.1-0.3,1.8-0.3c0.5,0,1,0.1,1.5,0.2s1,0.4,1.4,0.8L77.8,19.3z"/>
	<path class="st1" d="M81.7,13h3.4l-2.9,2.4H80L81.7,13z M80.4,16.7h2.5v8.2h-2.5V16.7z"/>
	<path class="st1" d="M90.3,19.3c-0.1-0.2-0.3-0.3-0.5-0.4s-0.5-0.2-0.7-0.2c-0.6,0-1.1,0.2-1.5,0.6S87,20.2,87,20.8
		c0,0.6,0.2,1.1,0.5,1.5s0.8,0.6,1.5,0.6c0.3,0,0.5-0.1,0.7-0.2s0.4-0.3,0.5-0.4l1.7,1.7c-0.4,0.4-0.9,0.7-1.4,0.8
		C90,25,89.5,25,89,25c-0.6,0-1.2-0.1-1.8-0.3c-0.6-0.2-1-0.5-1.4-0.9s-0.7-0.8-1-1.4s-0.4-1.1-0.4-1.8c0-0.6,0.1-1.2,0.4-1.8
		s0.6-1,1-1.4s0.9-0.7,1.4-0.9c0.6-0.2,1.1-0.3,1.8-0.3c0.5,0,1,0.1,1.5,0.2c0.5,0.2,1,0.4,1.4,0.8L90.3,19.3z"/>
	<path class="st1" d="M92.7,14.1c0-0.4,0.1-0.7,0.4-1s0.6-0.4,1-0.4s0.7,0.1,1,0.4c0.3,0.3,0.4,0.6,0.4,1s-0.1,0.7-0.4,1
		s-0.6,0.4-1,0.4s-0.7-0.1-1-0.4C92.8,14.9,92.7,14.5,92.7,14.1z M92.9,16.7h2.5v8.2h-2.5V16.7z"/>
	<path class="st1" d="M96.9,20.8c0-0.6,0.1-1.2,0.4-1.8c0.2-0.5,0.6-1,1-1.4s0.9-0.7,1.4-0.9c0.6-0.2,1.1-0.3,1.8-0.3
		c0.6,0,1.2,0.1,1.8,0.3c0.6,0.2,1,0.5,1.4,0.9s0.7,0.8,1,1.4s0.4,1.1,0.4,1.8c0,0.7-0.1,1.2-0.4,1.8s-0.6,1-1,1.4s-0.9,0.7-1.4,0.9
		c-0.6,0.2-1.1,0.3-1.8,0.3c-0.6,0-1.2-0.1-1.8-0.3c-0.6-0.2-1-0.5-1.4-0.9s-0.7-0.8-1-1.4C97,22,96.9,21.4,96.9,20.8z M99.4,20.8
		c0,0.6,0.2,1.1,0.5,1.5c0.4,0.4,0.8,0.6,1.5,0.6c0.6,0,1.1-0.2,1.5-0.6s0.5-0.9,0.5-1.5s-0.2-1.1-0.5-1.5s-0.8-0.6-1.5-0.6
		c-0.6,0-1.1,0.2-1.5,0.6C99.6,19.7,99.4,20.2,99.4,20.8z"/>
	<text transform="matrix(1 0 0 1 106.1 25.3516)" class="st1 st2 st3">2</text>
</g>
<g>
	<g>
		<g>
			<path class="st4" d="M13.4,9L4,18.4c-1.4,1.4-1.4,3.8,0,5.2l9.4,9.4c1.4,1.4,3.8,1.4,5.2,0l9.4-9.4c1.4-1.4,1.4-3.8,0-5.2L18.5,9
				C17.1,7.6,14.8,7.6,13.4,9z"/>
		</g>
	</g>
	<text transform="matrix(1 0 0 1 12.0991 24.7256)" class="st1 st2 st5">2</text>
</g>
<g>
	<path class="st6" d="M37.1,34.4l2.1-7.1h1L38,34.4H37.1z"/>
	<path class="st6" d="M40.7,27.1h1.5V34h-1.5V27.1z"/>
	<path class="st6" d="M46.1,34L46,33.6h0c-0.3,0.4-0.8,0.6-1.4,0.6c-1,0-1.5-0.7-1.5-1.5c0-1.2,1.1-1.8,2.8-1.8v-0.1
		c0-0.3-0.1-0.6-0.9-0.6c-0.5,0-1,0.2-1.3,0.4l-0.3-1c0.3-0.2,1-0.4,1.9-0.4c1.6,0,2.1,0.9,2.1,2.1v1.7c0,0.5,0,0.9,0.1,1.2H46.1z
		 M45.9,31.8c-0.8,0-1.4,0.2-1.4,0.8c0,0.4,0.3,0.6,0.6,0.6c0.4,0,0.7-0.2,0.8-0.5c0-0.1,0-0.2,0-0.3V31.8z"/>
	<path class="st6" d="M48.6,30.8c0-0.6,0-1.1,0-1.5h1.3l0.1,0.7h0c0.2-0.3,0.7-0.8,1.5-0.8c1,0,1.7,0.6,1.7,2V34h-1.5v-2.6
		c0-0.6-0.2-1-0.8-1c-0.4,0-0.7,0.3-0.8,0.6c0,0.1-0.1,0.2-0.1,0.4V34h-1.5V30.8z"/>
	<path class="st6" d="M58.9,27.1v5.5c0,0.5,0,1.1,0,1.4h-1.3l-0.1-0.7h0c-0.3,0.5-0.9,0.8-1.5,0.8c-1.1,0-2-1-2-2.4
		c0-1.6,1-2.5,2.1-2.5c0.6,0,1,0.2,1.3,0.5h0v-2.6H58.9z M57.4,31.3c0-0.1,0-0.2,0-0.3c-0.1-0.4-0.4-0.7-0.9-0.7c-0.7,0-1,0.6-1,1.4
		c0,0.8,0.4,1.3,1,1.3c0.4,0,0.8-0.3,0.9-0.7c0-0.1,0-0.2,0-0.3V31.3z"/>
	<path class="st6" d="M61.6,27.9c0,0.4-0.3,0.7-0.8,0.7c-0.5,0-0.8-0.3-0.8-0.7c0-0.4,0.3-0.8,0.8-0.8
		C61.3,27.2,61.6,27.5,61.6,27.9z M60.1,34v-4.8h1.5V34H60.1z"/>
	<path class="st6" d="M62.8,30.8c0-0.6,0-1.1,0-1.5H64l0.1,0.7h0c0.2-0.3,0.7-0.8,1.5-0.8c1,0,1.7,0.6,1.7,2V34h-1.5v-2.6
		c0-0.6-0.2-1-0.8-1c-0.4,0-0.7,0.3-0.8,0.6c0,0.1-0.1,0.2-0.1,0.4V34h-1.5V30.8z"/>
	<path class="st6" d="M73,29.3c0,0.3,0,0.7,0,1.4v2.7c0,0.9-0.2,1.7-0.7,2.1c-0.5,0.4-1.2,0.6-1.9,0.6c-0.6,0-1.3-0.1-1.7-0.4
		l0.3-1.1c0.3,0.2,0.8,0.4,1.4,0.4c0.7,0,1.2-0.4,1.2-1.3v-0.3h0c-0.3,0.4-0.7,0.6-1.3,0.6c-1.2,0-2-1-2-2.3c0-1.5,1-2.5,2.2-2.5
		c0.7,0,1.1,0.3,1.3,0.7h0l0-0.6H73z M71.5,31.2c0-0.1,0-0.2,0-0.3c-0.1-0.4-0.4-0.7-0.8-0.7c-0.5,0-1,0.5-1,1.4
		c0,0.7,0.4,1.3,1,1.3c0.4,0,0.7-0.3,0.8-0.6c0-0.1,0-0.3,0-0.4V31.2z"/>
	<path class="st6" d="M74.2,30.9c0-0.6,0-1.2,0-1.6h1.3l0.1,0.7h0c0.4-0.5,0.9-0.8,1.6-0.8c1,0,2,0.9,2,2.4c0,1.7-1.1,2.6-2.2,2.6
		c-0.6,0-1-0.2-1.2-0.5h0V36h-1.5V30.9z M75.7,32c0,0.1,0,0.2,0,0.3c0.1,0.4,0.4,0.7,0.9,0.7c0.6,0,1-0.5,1-1.3c0-0.8-0.3-1.3-1-1.3
		c-0.4,0-0.8,0.3-0.9,0.8c0,0.1,0,0.2,0,0.3V32z"/>
	<path class="st6" d="M82.7,34l-0.1-0.5h0c-0.3,0.4-0.8,0.6-1.4,0.6c-1,0-1.5-0.7-1.5-1.5c0-1.2,1.1-1.8,2.8-1.8v-0.1
		c0-0.3-0.1-0.6-0.9-0.6c-0.5,0-1,0.2-1.3,0.4l-0.3-1c0.3-0.2,1-0.4,1.9-0.4c1.6,0,2.1,0.9,2.1,2.1v1.7c0,0.5,0,0.9,0.1,1.2H82.7z
		 M82.5,31.8c-0.8,0-1.4,0.2-1.4,0.8c0,0.4,0.3,0.6,0.6,0.6c0.4,0,0.7-0.2,0.8-0.5c0-0.1,0-0.2,0-0.3V31.8z"/>
	<path class="st6" d="M89.7,29.3c0,0.3,0,0.7,0,1.4v2.7c0,0.9-0.2,1.7-0.7,2.1c-0.5,0.4-1.2,0.6-1.9,0.6c-0.6,0-1.3-0.1-1.7-0.4
		l0.3-1.1c0.3,0.2,0.8,0.4,1.4,0.4c0.7,0,1.2-0.4,1.2-1.3v-0.3h0c-0.3,0.4-0.7,0.6-1.3,0.6c-1.2,0-2-1-2-2.3c0-1.5,1-2.5,2.2-2.5
		c0.7,0,1.1,0.3,1.3,0.7h0l0-0.6H89.7z M88.2,31.2c0-0.1,0-0.2,0-0.3c-0.1-0.4-0.4-0.7-0.8-0.7c-0.5,0-1,0.5-1,1.4
		c0,0.7,0.4,1.3,1,1.3c0.4,0,0.7-0.3,0.8-0.6c0-0.1,0-0.3,0-0.4V31.2z"/>
	<path class="st6" d="M92,32.1c0,0.6,0.7,0.9,1.3,0.9c0.5,0,0.9-0.1,1.3-0.2l0.2,1c-0.5,0.2-1.1,0.3-1.7,0.3c-1.6,0-2.5-0.9-2.5-2.4
		c0-1.2,0.8-2.5,2.4-2.5c1.5,0,2.1,1.2,2.1,2.4c0,0.3,0,0.5,0,0.6H92z M93.8,31.1c0-0.4-0.2-1-0.8-1c-0.6,0-0.9,0.6-0.9,1H93.8z"/>
</g>
</svg>
